PathFileType	4	(X/Y/Z)	./resultDataOpenSim/trcMotMarkerGrf/sub06/qtm-12-08.trc
DataRate	CameraRate	NumFrames	NumMarkers	Units	OrigDataRate	OrigDataStartFrame	OrigNumFrames
250.000000	250.000000	14	24	m	250.000000	130	519
Frame#	Time	L.Toe.Tip			R.Toe.Tip			L.Ankle.Lat			R.Ankle.Lat			L.Ankle.Med			R.Ankle.Med			L.Heel			R.Heel			L.Knee.Lat			R.Knee.Lat			L.Knee.Med			R.Knee.Med			L.Thigh.Upper			R.Thigh.Upper			L.ASIS			R.ASIS			V.Sacral			L.Acromium			R.Acromium			C7			L.Elbow			R.Elbow			L.Wrist.Lat			R.Wrist.Lat
		X1	Y1	Z1	X2	Y2	Z2	X3	Y3	Z3	X4	Y4	Z4	X5	Y5	Z5	X6	Y6	Z6	X7	Y7	Z7	X8	Y8	Z8	X9	Y9	Z9	X10	Y10	Z10	X11	Y11	Z11	X12	Y12	Z12	X13	Y13	Z13	X14	Y14	Z14	X15	Y15	Z15	X16	Y16	Z16	X17	Y17	Z17	X18	Y18	Z18	X19	Y19	Z19	X20	Y20	Z20	X21	Y21	Z21	X22	Y22	Z22	X23	Y23	Z23	X24	Y24	Z24

130	0.516	-0.14249871	0.091504014	-0.08074593	-0.71425582	0.035429658	0.073115367	-0.27108198	0.091140302	-0.10017221	-0.84671734	0.07113948	0.087615473	-0.27113725	0.10845346	-0.015680077	-0.82076781	0.086795516	0.0015093227	-0.32939579	0.041754948	-0.047493624	-0.90145566	0.052542664	0.02248965	-0.34882355	0.4551192	-0.10668646	-0.68723398	0.42588298	0.12566275	-0.36752869	0.44543909	0.015978346	-0.71208684	0.42712066	-0.0053534008	-0.53785993	0.79891075	-0.15575356	-0.60341884	0.77941788	0.18758691	-0.48030102	0.84178955	-0.098415058	-0.50105229	0.83157426	0.14862834	-0.67087603	0.91514921	0.016566461	-0.55845159	1.3222348	-0.16141906	-0.54360008	1.3096883	0.19959314	-0.62577299	1.3539545	0.021524462	-0.67058764	1.0259319	-0.2121252	-0.58178962	1.0003415	0.30212114	-0.55618181	0.8097545	-0.25020221	-0.36402134	0.87788112	0.28850303
131	0.52	-0.1260056	0.094682745	-0.079579438	-0.71417914	0.035407439	0.073078377	-0.2546694	0.092449371	-0.10011869	-0.84632159	0.071813788	0.087481791	-0.25575195	0.10965818	-0.015793865	-0.82011321	0.087215133	0.001358848	-0.31205356	0.041838401	-0.048893256	-0.90127657	0.053510752	0.022401498	-0.34133424	0.45351829	-0.10585321	-0.68358022	0.42509228	0.12565809	-0.36048967	0.44321418	0.016988727	-0.70801433	0.42648365	-0.0054253938	-0.53071667	0.79657804	-0.15568168	-0.59793961	0.77786127	0.18771325	-0.47323589	0.83953948	-0.098278511	-0.49484295	0.82983071	0.14887097	-0.66617261	0.91423673	0.017740484	-0.55202258	1.3201347	-0.16168198	-0.53728574	1.3078242	0.19954914	-0.61947097	1.3522108	0.021284519	-0.66485281	1.0241958	-0.21185528	-0.5742799	0.99833796	0.30245971	-0.55230153	0.80753626	-0.25097806	-0.35550864	0.87773184	0.28792719
132	0.524	-0.11017904	0.098005999	-0.078405913	-0.71410416	0.035383426	0.073044833	-0.23884843	0.093841795	-0.10000583	-0.84589874	0.072532641	0.087381233	-0.24092097	0.11093892	-0.015775481	-0.81945488	0.087695621	0.0012011516	-0.29539546	0.041973991	-0.050223588	-0.90112313	0.054553564	0.022448253	-0.3338618	0.45193463	-0.10506506	-0.67975892	0.42430259	0.12568071	-0.3533862	0.4410461	0.017996362	-0.703826	0.42584194	-0.0054976434	-0.52356819	0.79423215	-0.1556046	-0.59229559	0.77637799	0.1875473	-0.46612228	0.83727917	-0.098156429	-0.48856384	0.82810143	0.14907137	-0.66084802	0.9130759	0.018172643	-0.54557895	1.3180269	-0.16194898	-0.53099007	1.3059662	0.19948755	-0.61313311	1.3504431	0.021038728	-0.65903516	1.0224094	-0.2116202	-0.56679307	0.9963271	0.30277078	-0.54847297	0.80528642	-0.25177927	-0.34706854	0.87749445	0.28738381
133	0.528	-0.095027337	0.10143461	-0.077206482	-0.71402955	0.035357996	0.073014889	-0.22365632	0.095260655	-0.09980112	-0.84543396	0.073300153	0.087320676	-0.22667329	0.11220419	-0.015621386	-0.81879889	0.088240868	0.0010500897	-0.27951575	0.042164882	-0.051166043	-0.90094932	0.055702942	0.022578043	-0.32635301	0.45040607	-0.10431146	-0.67579713	0.42349746	0.125712	-0.34625358	0.43896855	0.018989046	-0.69954266	0.42520055	-0.0055666684	-0.51635123	0.79189699	-0.15552421	-0.58647471	0.77486727	0.1872106	-0.45895457	0.83501683	-0.098043679	-0.48224634	0.82638849	0.14926502	-0.65475596	0.91146317	0.017596116	-0.53911963	1.3159246	-0.16221838	-0.52471804	1.3041108	0.19940997	-0.60677815	1.3486582	0.020773084	-0.6531449	1.0206031	-0.21145868	-0.55930353	0.99431222	0.30303601	-0.54451893	0.80297694	-0.25249549	-0.33872111	0.87717905	0.2868573
134	0.532	-0.080546726	0.10487905	-0.075975123	-0.71395907	0.035330122	0.072989035	-0.20910711	0.096652714	-0.099483458	-0.84490966	0.074126076	0.087304396	-0.2129913	0.11337259	-0.015333675	-0.81813657	0.088846425	0.00094349096	-0.26436083	0.042380653	-0.05166751	-0.90070831	0.056970929	0.022697503	-0.31873891	0.44897782	-0.10358039	-0.67173789	0.42266832	0.12574287	-0.33911132	0.43701488	0.019954849	-0.69516331	0.42455284	-0.0056364313	-0.50905571	0.78959537	-0.15544543	-0.58047269	0.77324956	0.18674459	-0.45171424	0.83276944	-0.09792308	-0.47593672	0.82467729	0.14948626	-0.64795067	0.90945042	0.016365179	-0.53264605	1.3138439	-0.16249196	-0.51846061	1.3022583	0.19931153	-0.60040869	1.3468586	0.020484228	-0.64717442	1.0188088	-0.21134608	-0.551808	0.99230341	0.30323586	-0.5404193	0.80060068	-0.25311259	-0.3304785	0.87680886	0.28633791
135	0.536	-0.066728454	0.10820904	-0.074727208	-0.71390249	0.035293902	0.07296935	-0.19519074	0.097965471	-0.099046152	-0.84429226	0.075025935	0.087333569	-0.19985685	0.1143874	-0.014914895	-0.81745139	0.089509791	0.0009101262	-0.24986352	0.042576536	-0.051830855	-0.90038622	0.058351014	0.022769709	-0.31100095	0.44768102	-0.1028695	-0.66758159	0.42182312	0.12578184	-0.33196489	0.43521388	0.020871231	-0.69067195	0.42388828	-0.0057064842	-0.50169006	0.78734975	-0.15537306	-0.57432673	0.77152823	0.18618783	-0.44435875	0.83056226	-0.097757996	-0.4696502	0.82294888	0.14974491	-0.64044123	0.90714406	0.014845591	-0.52616096	1.311793	-0.16277047	-0.51220192	1.3004155	0.1991831	-0.59401913	1.3450504	0.020177854	-0.64110881	1.0170374	-0.2112276	-0.54432564	0.99031315	0.30336312	-0.53630247	0.79817789	-0.25371491	-0.32232807	0.87639905	0.28582301
136	0.54	-0.05355769	0.11127783	-0.073498055	-0.71386846	0.03524065	0.072959769	-0.18189172	0.09914515	-0.098498304	-0.84356634	0.076000655	0.087405251	-0.18726922	0.11522213	-0.014381773	-0.81673083	0.090233265	0.00095092722	-0.23600071	0.042725018	-0.051751687	-0.90000113	0.059829919	0.022831239	-0.30314972	0.44653115	-0.10217754	-0.66331217	0.42097148	0.12583776	-0.32481253	0.43358231	0.021707747	-0.68605535	0.42319866	-0.0057728198	-0.49426027	0.78517147	-0.1553018	-0.56816336	0.76981298	0.18566424	-0.43685164	0.82841499	-0.097516132	-0.46335033	0.82120346	0.15002017	-0.63214189	0.90455585	0.013106739	-0.51966535	1.3097688	-0.16305573	-0.50593131	1.2985943	0.19901904	-0.58760514	1.3432408	0.019859549	-0.63494283	1.0152832	-0.21108129	-0.53687522	0.98834673	0.30342616	-0.53230761	0.79572277	-0.25438353	-0.31424351	0.87594653	0.28531375
137	0.544	-0.041013167	0.11395147	-0.072327412	-0.71385144	0.035172327	0.072963489	-0.16920419	0.10014166	-0.097859009	-0.84278872	0.077029802	0.087515749	-0.17522637	0.11587907	-0.013763147	-0.81597266	0.091016707	0.001053731	-0.22278104	0.042808837	-0.051474011	-0.89955943	0.061397945	0.022903795	-0.29519804	0.44552605	-0.10150118	-0.65892057	0.42011306	0.12591313	-0.31762873	0.43211946	0.022451296	-0.68130942	0.42247479	-0.0058291422	-0.48676826	0.78306232	-0.15522046	-0.56219118	0.76830016	0.1853998	-0.42923444	0.82632663	-0.097228857	-0.45697711	0.8194658	0.15028701	-0.6231999	0.90173822	0.011187091	-0.51315474	1.3077648	-0.16335401	-0.4996475	1.2968024	0.19881934	-0.58116789	1.3414343	0.019527088	-0.62868042	1.0135414	-0.21091813	-0.52945759	0.98640293	0.303436	-0.52847485	0.79323811	-0.25513504	-0.30620489	0.87544156	0.28481246
138	0.548	-0.029073287	0.11613167	-0.071243284	-0.7138296	0.035107719	0.072981544	-0.15712973	0.1009135	-0.097148267	-0.84206678	0.078098263	0.087672597	-0.16372577	0.1163683	-0.013085831	-0.81518667	0.091855945	0.0012082712	-0.21022289	0.04280681	-0.051013447	-0.89903681	0.063059175	0.022957407	-0.28715059	0.44464556	-0.10083783	-0.65440412	0.41923997	0.12600972	-0.31036325	0.43081029	0.023117707	-0.67643445	0.42170662	-0.005865076	-0.47922241	0.78102606	-0.15512767	-0.55659141	0.76717126	0.18560514	-0.42163067	0.82427991	-0.096991777	-0.4504931	0.81776067	0.15054139	-0.6141986	0.8989464	0.0093693013	-0.50662184	1.3057801	-0.16367315	-0.49335366	1.2950372	0.19858782	-0.57471206	1.3396327	0.019173259	-0.6223296	1.0118134	-0.21075445	-0.52206145	0.98448348	0.30339359	-0.52470809	0.79074593	-0.25592833	-0.29820868	0.87487946	0.28431839
139	0.552	-0.017727724	0.11776293	-0.070258313	-0.71378241	0.035066974	0.073015332	-0.14566885	0.10142451	-0.096382921	-0.84144671	0.079220613	0.087893572	-0.15276332	0.11669595	-0.012356016	-0.81438473	0.092749008	0.0014094229	-0.19833986	0.042693425	-0.05038236	-0.89841915	0.0648371	0.022990495	-0.27901378	0.44385685	-0.10018736	-0.64976884	0.41834394	0.12612662	-0.30297502	0.42963923	0.023731226	-0.67142566	0.42088737	-0.0058677242	-0.47164044	0.77907035	-0.15502933	-0.55132003	0.76640123	0.18622102	-0.41412535	0.8222641	-0.096865296	-0.44390566	0.81609156	0.1507898	-0.60575059	0.89648407	0.0080079857	-0.50006098	1.3038214	-0.16401671	-0.4870542	1.2932936	0.19833337	-0.56824194	1.3378381	0.018795111	-0.61590366	1.0101005	-0.21059964	-0.51467912	0.98259681	0.30329431	-0.52084305	0.7882904	-0.25670164	-0.29026483	0.87426276	0.28382747
140	0.556	-0.0069808456	0.118827	-0.069370893	-0.71370584	0.035055452	0.073067264	-0.13481924	0.10163923	-0.09557604	-0.84085068	0.080427231	0.088185694	-0.14232719	0.11685941	-0.011560654	-0.8135597	0.093702592	0.0016586446	-0.18713827	0.042436322	-0.049600063	-0.89776019	0.066765611	0.023118738	-0.27080633	0.44311976	-0.099547378	-0.6450267	0.41741998	0.12625782	-0.29545532	0.42859641	0.024303475	-0.66627128	0.42001416	-0.0058295062	-0.46403056	0.7771983	-0.15492262	-0.54607446	0.76571393	0.18685736	-0.40667257	0.8202907	-0.096802098	-0.43725553	0.81444844	0.15102925	-0.59797552	0.8944362	0.0072435298	-0.49346708	1.3018983	-0.16438253	-0.48074992	1.2915737	0.19806371	-0.56175767	1.336057	0.018396501	-0.60941889	1.008401	-0.21045621	-0.50731533	0.9807505	0.30313941	-0.51678203	0.78590292	-0.25741923	-0.28238001	0.87359833	0.28333427
141	0.56	0.003158749	0.11933204	-0.068563884	-0.7136064	0.035063418	0.07313596	-0.12457957	0.1015269	-0.094734998	-0.84015818	0.081733672	0.088537442	-0.1324127	0.1168259	-0.010700452	-0.81267999	0.094731444	0.0019584734	-0.17662669	0.041993706	-0.048702459	-0.89716241	0.068864523	0.02351311	-0.26255287	0.44239057	-0.098912371	-0.64017797	0.41647126	0.12640073	-0.2878162	0.4276687	0.024835317	-0.66096982	0.41908826	-0.0057562451	-0.45637374	0.77540543	-0.15479614	-0.54057104	0.76484134	0.18715255	-0.39917438	0.81838226	-0.096711983	-0.43058212	0.81282524	0.15125608	-0.59053956	0.892668	0.0070039629	-0.48683361	1.300014	-0.16476833	-0.47442777	1.289882	0.19777133	-0.55525051	1.3343003	0.017979853	-0.60287333	1.0067134	-0.21032688	-0.49998012	0.97894343	0.30293319	-0.51253031	0.78358949	-0.25809175	-0.27454982	0.8728917	0.28283524
142	0.564	0.012686856	0.11930061	-0.067804474	-0.71348894	0.035073971	0.073213011	-0.11494941	0.10107004	-0.093862963	-0.83931406	0.083134527	0.08893345	-0.12303713	0.11652524	-0.0098089003	-0.81171417	0.095848627	0.0023029236	-0.16681974	0.041323294	-0.047746426	-0.89664982	0.071120152	0.024195182	-0.2542699	0.44162726	-0.098283487	-0.63520564	0.41550786	0.12655974	-0.2800674	0.42683238	0.025327278	-0.65555148	0.41811326	-0.0056639915	-0.44863805	0.77368699	-0.15464917	-0.53474609	0.76373619	0.1870948	-0.39161053	0.81654679	-0.096572743	-0.42389243	0.81122355	0.15147713	-0.58318391	0.89105649	0.0071600341	-0.48015438	1.2981617	-0.16517642	-0.46806242	1.2882166	0.19743803	-0.54870392	1.3325796	0.017538728	-0.59621814	1.0050411	-0.21021926	-0.49267586	0.97716886	0.30267129	-0.50809853	0.78135739	-0.25874744	-0.26677399	0.87214111	0.28233216
143	0.568	0.021600988	0.11875876	-0.067049326	-0.71335361	0.035074669	0.073287936	-0.1059269	0.10026779	-0.092966041	-0.83833213	0.084619131	0.089364531	-0.11422941	0.11588776	-0.0089230585	-0.81065449	0.097059806	0.002682902	-0.15773028	0.040394704	-0.046787952	-0.89609672	0.073501087	0.024968884	-0.24596105	0.44079968	-0.09767414	-0.63008932	0.41453599	0.12673907	-0.27220543	0.42605642	0.025783813	-0.65006191	0.41709001	-0.0055639261	-0.44081372	0.77204447	-0.15450256	-0.52860942	0.76246584	0.18693614	-0.3840094	0.81477511	-0.096423509	-0.4171589	0.80964637	0.15169325	-0.57618303	0.8896776	0.0076102158	-0.47342708	1.2963349	-0.16560984	-0.46163751	1.2865755	0.19705669	-0.54210589	1.3309	0.017062878	-0.58938611	1.0033929	-0.21013908	-0.48539823	0.97542689	0.30234122	-0.50343674	0.77922929	-0.25939133	-0.2590706	0.87133756	0.28183157
